<svg xmlns="http://www.w3.org/2000/svg" xmlns:xlink="http://www.w3.org/1999/xlink" version="1.1" id="Layer_1" x="0px" y="0px" style="enable-background:new 0 0 1080 1080;" xml:space="preserve" viewBox="177.3 480.33 723.85 120.7">
<style type="text/css">
	.st0{fill:#FFFFFF;}
</style>
<g>
	<g>
		<path class="st0" d="M328.18,526.11v27.7c0,6.59,3.44,9.45,10.55,9.45h15.83v-6.74h-17.88c-0.51,0-0.81-0.22-0.81-0.81v-31.43    c0-0.59,0.29-0.81,0.81-0.81h17.88v-6.74h-15.83C331.62,516.74,328.18,519.59,328.18,526.11z"/>
		<path class="st0" d="M388.39,516.15h-11.94c-7.18,0-10.55,2.86-10.55,9.45v28.8c0,6.52,3.37,9.45,10.55,9.45h11.94    c7.18,0,10.55-2.93,10.55-9.45v-28.8C398.94,519.01,395.57,516.15,388.39,516.15z M391.32,556.3c0,0.59-0.29,0.81-0.81,0.81    h-16.19c-0.51,0-0.81-0.22-0.81-0.81V523.7c0-0.59,0.29-0.81,0.81-0.81h16.19c0.51,0,0.81,0.22,0.81,0.81V556.3z"/>
		<path class="st0" d="M430.14,544.58h7.25v11.72c0,0.59-0.29,0.81-0.73,0.81h-14.87c-0.51,0-0.81-0.22-0.81-0.81V523.7    c0-0.59,0.29-0.81,0.81-0.81h22.05v-6.74h-19.93c-7.18,0-10.55,2.86-10.55,9.45v28.8c0,6.52,3.37,9.45,10.55,9.45h10.26    c7.11,0,10.55-2.93,10.55-9.45v-16.12h-14.58V544.58z"/>
		<polygon class="st0" points="485.22,549.64 463.83,516.74 458.63,516.74 458.63,563.26 465.07,563.26 465.07,530.22     486.54,563.26 491.74,563.26 491.74,516.74 485.22,516.74   "/>
		<rect x="508.07" y="516.74" class="st0" width="7.47" height="46.53"/>
		<polygon class="st0" points="526.22,523.26 537.51,523.26 537.51,563.26 544.98,563.26 544.98,523.26 556.34,523.26     556.34,516.74 526.22,516.74   "/>
		<rect x="567.39" y="516.74" class="st0" width="7.47" height="46.53"/>
		<path class="st0" d="M606.86,555.94c-0.15,0.59-0.29,0.81-0.81,0.81h-3l-9.16-40.01h-7.4l10.77,46.53l7.99,0.15    c5.71,0.07,6.81-1.32,8.43-7.62l10.04-39.05h-7.03L606.86,555.94z"/>
		<polygon class="st0" points="641.21,542.82 658.8,542.82 658.8,536.37 641.21,536.37 641.21,523.26 660.19,523.26 660.19,516.74     633.74,516.74 633.74,563.26 660.56,563.26 660.56,556.74 641.21,556.74   "/>
		<path class="st0" d="M710.2,536.52h-10.04c-0.59,0-0.95-0.29-0.95-0.95v-11.36c0-0.66,0.37-0.95,0.95-0.95h19.78v-6.52    l-17.15-0.29c-7.25-0.15-11.21,3.59-11.21,10.11v6.89c0,6.67,3.74,9.82,11.06,9.82h10.18c0.59,0,0.95,0.29,0.95,0.95v11.58    c0,0.66-0.37,0.95-0.95,0.95H692.4v6.52l17.95,0.29c7.33,0.15,11.06-3.37,11.06-10.04v-7.11    C721.41,539.89,717.46,536.52,710.2,536.52z"/>
		<path class="st0" d="M754.3,516.44l-19.49,0.29v46.53h7.55l-0.07-17.15h12.02c7.33,0,11.14-3.96,11.14-10.26v-9.38    C765.43,519.74,761.62,516.3,754.3,516.44z M757.74,538.64c0,0.66-0.37,0.95-0.95,0.95h-14.51v-16.63h14.51    c0.66,0,0.95,0.29,0.95,0.95V538.64z"/>
		<path class="st0" d="M790.33,516.52c-5.94-0.07-7.25,1.54-8.87,7.55l-10.55,39.2h6.96l2.93-11.65h17.95l2.64,11.65h7.47    l-10.92-46.53L790.33,516.52z M782.49,545.24l5.57-21.25c0.07-0.59,0.22-0.81,0.81-0.81h3.44l5.06,22.06H782.49z"/>
		<path class="st0" d="M844.76,544.29c4.25-1.39,6.38-4.76,6.38-9.53v-8.28c0-6.74-3.74-10.19-11.06-10.04l-19.64,0.29v46.53h7.55    l-0.07-18.25h10.26c0.81,0,0.95,0.29,1.17,0.95l5.86,17.29h7.55l-5.06-14.43C846.88,546.56,846,545.17,844.76,544.29z     M843.51,537.62c0,0.66-0.37,0.95-0.95,0.95H827.9v-15.61h14.65c0.59,0,0.95,0.29,0.95,0.95V537.62z"/>
		<path class="st0" d="M892.73,545.97c-1.69-3.52-2.64-5.42-4.84-6.3c1.91-0.88,2.86-2.64,4.32-6.08l7.18-16.85h-7.47l-8.06,18.98    c-0.22,0.51-0.29,0.73-0.81,0.73h-9.45v-19.71h-7.47v46.53h7.47v-20.3h9.45c0.51,0,0.59,0.22,0.81,0.81l9.31,19.49h7.99    L892.73,545.97z"/>
	</g>
	<g>
		<path class="st0" d="M256.59,524.8c-0.95-1.65-3.07-2.22-4.72-1.26l-17.94,10.36v-20.72c0-1.91-1.55-3.46-3.46-3.46    c-1.91,0-3.46,1.55-3.46,3.46v20.72l-17.94-10.36c-1.65-0.95-3.77-0.39-4.72,1.26c-0.95,1.65-0.39,3.77,1.26,4.72l17.94,10.36    l-17.94,10.36c-1.65,0.95-2.22,3.07-1.26,4.72c0.64,1.11,1.8,1.73,3,1.73c0.59,0,1.18-0.15,1.72-0.46l17.94-10.36v20.72    c0,1.91,1.55,3.46,3.46,3.46c1.91,0,3.46-1.55,3.46-3.46v-20.72l17.94,10.36c0.54,0.31,1.14,0.46,1.72,0.46    c1.19,0,2.36-0.62,3-1.73c0.95-1.65,0.39-3.77-1.26-4.72l-17.94-10.36l17.94-10.36C256.98,528.56,257.54,526.45,256.59,524.8z"/>
		
			<ellipse transform="matrix(0.9871 -0.1602 0.1602 0.9871 -74.8933 43.2064)" class="st0" cx="230.54" cy="486.13" rx="5.06" ry="5.06"/>
		<circle class="st0" cx="277.04" cy="512.71" r="5.06"/>
		<circle class="st0" cx="277.04" cy="567.04" r="5.06"/>
		
			<ellipse transform="matrix(0.7071 -0.7071 0.7071 0.7071 -352.4229 336.9077)" class="st0" cx="230.47" cy="593.87" rx="5.06" ry="5.06"/>
		
			<ellipse transform="matrix(0.3827 -0.9239 0.9239 0.3827 -410.3504 519.9487)" class="st0" cx="183.9" cy="567.04" rx="5.06" ry="5.06"/>
		
			<ellipse transform="matrix(0.9732 -0.2298 0.2298 0.9732 -112.877 55.9676)" class="st0" cx="183.9" cy="512.71" rx="5.06" ry="5.06"/>
		<path class="st0" d="M254.16,502.54c1.54,0,2.79-1.25,2.79-2.79s-1.25-2.79-2.79-2.79s-2.79,1.25-2.79,2.79    S252.62,502.54,254.16,502.54z"/>
		<path class="st0" d="M207.02,502.34c1.49,0,2.69-1.2,2.69-2.69s-1.2-2.69-2.69-2.69c-1.49,0-2.69,1.2-2.69,2.69    S205.54,502.34,207.02,502.34z"/>
		<path class="st0" d="M186.59,539.88c0-1.49-1.2-2.69-2.69-2.69c-1.49,0-2.69,1.2-2.69,2.69c0,1.49,1.2,2.69,2.69,2.69    C185.39,542.57,186.59,541.36,186.59,539.88z"/>
		<path class="st0" d="M206.82,577.3c-1.49,0-2.69,1.2-2.69,2.69s1.2,2.69,2.69,2.69s2.69-1.2,2.69-2.69S208.3,577.3,206.82,577.3z"/>
		<path class="st0" d="M253.76,577.3c-1.49,0-2.69,1.2-2.69,2.69s1.2,2.69,2.69,2.69s2.69-1.2,2.69-2.69S255.24,577.3,253.76,577.3z    "/>
		<path class="st0" d="M274.35,539.88c0,1.49,1.2,2.69,2.69,2.69s2.69-1.2,2.69-2.69c0-1.49-1.2-2.69-2.69-2.69    S274.35,538.39,274.35,539.88z"/>
	</g>
</g>
</svg>